<?xml version="1.0" encoding="utf-8"?>
<!-- Generator: Adobe Illustrator 19.0.0, SVG Export Plug-In . SVG Version: 6.00 Build 0)  -->
<svg version="1.1" id="Layer_1" xmlns="http://www.w3.org/2000/svg" xmlns:xlink="http://www.w3.org/1999/xlink" x="0px" y="0px"
	 viewBox="0 0 1920 420" style="enable-background:new 0 0 1920 420;" xml:space="preserve">
<style type="text/css">
	.st0{fill:#F5F0DC;}
</style>
<g id="XMLID_54_">
	<g id="XMLID_313_">
		<path id="XMLID_314_" class="st0" d="M989.4,49.4h-55v55h55V49.4z M984.4,99.4h-45v-45h45V99.4z M982.4,56.4h-40v41h40V56.4z
			 M962.1,93.2c-9,0-16.3-7.3-16.3-16.3c0-9,7.3-16.3,16.3-16.3c9,0,16.3,7.3,16.3,16.3C978.4,85.8,971.1,93.2,962.1,93.2z
			 M961.4,13.4h-0.8l-5.2,13.7v4.3h-4v9h-4v8h14V13.4z M976.4,40.4h-4v-9h-4v-4.3l-4.8-13.7h-0.2v35h13V40.4z M1628.8,331.4
			L1455,227.7l-19.4-45.9l82.8-97.1l-90.1,79.6l-61.3-145.2l48,156.9l-18.7,16.5l-90.1-53.8l74.5,67.5l-141.5,125h-32.7v-55h-129
			v-44h-74v-91.1l-4-50.9h-4v0.3l-1.6-22.3h-3.4v37h-27v221h-2v-221h-28v-37h-3l-2,22.3v-0.3h-3.6l-4.4,50.9v91.1h-73v44h-130v55
			h-55.2l-68.9-3.5L508.5,0l-84.8,327.9l-68.9,3.5H0V420h1920v-88.6H1628.8z M541.2,223.4l-15.3-9.5l10.5-18.8L541.2,223.4z
			 M506.4,241.3l-7.5,13.1l-21.5-26.8l15.6-10.2L506.4,241.3z M495.9,215.4l12.7-8.3l12.7,8.3l-12.7,22.2L495.9,215.4z M499.9,260.4
			l6.5,8.4l-37.1,46.3L499.9,260.4z M501.5,257.5l7-12.5l7,12.5l-7,8.7L501.5,257.5z M517.1,260.4l30.5,54.7l-37.1-46.3L517.1,260.4
			z M510.6,241.3l13.4-24l15.6,10.2l-21.5,26.8L510.6,241.3z M535.5,190.3L523,212.2l-11.4-7.1l23.8-15.6L535.5,190.3z M508.5,32.4
			l26.4,154.4l-26.4,16.4l-26.4-16.4L508.5,32.4z M481.7,189.5l23.8,15.6l-11.4,7.1l-12.5-21.8L481.7,189.5z M480.7,195.2l10.5,18.8
			l-15.3,9.5L480.7,195.2z M474.9,229.2l0.6-0.4l22,28.3l-38.9,68.2L474.9,229.2z M466.2,326.4l42.3-54.9l42.3,54.9H466.2z
			 M519.6,257.1l22-28.3l0.6,0.4l16.4,96.1L519.6,257.1z M1421.6,198.2l3.6,11.8l-9.1-5.4L1421.6,198.2z M1308,331.4l91.8-107.6
			l41.2,37.3l21.5,70.3H1308z M1498.8,331.4l-12.2-28.8l31.7,28.8H1498.8z"/>
	</g>
</g>
</svg>
