<?xml version="1.0" encoding="utf-8"?>
<!-- Generator: Adobe Illustrator 19.0.0, SVG Export Plug-In . SVG Version: 6.00 Build 0)  -->
<svg version="1.1" id="Layer_1" xmlns="http://www.w3.org/2000/svg" xmlns:xlink="http://www.w3.org/1999/xlink" x="0px" y="0px"
	 viewBox="0 0 667.2 70.8" style="enable-background:new 0 0 667.2 70.8;" xml:space="preserve">
<style type="text/css">
	.st0{fill:#EFE465;}
	.st1{fill:#F2EFDB;}
</style>
<g>
	<g>
		<g id="XMLID_45_">
			<path id="XMLID_49_" class="st0" d="M277.7,68.5c0,0.6-0.2,1.1-0.6,1.5c-0.4,0.4-0.9,0.6-1.5,0.6s-1.1-0.2-1.5-0.6
				c-0.4-0.4-0.6-0.9-0.6-1.5V21.9c0-0.6,0.2-1.1,0.6-1.5c0.4-0.4,0.9-0.6,1.5-0.6s1.1,0.2,1.5,0.6c0.4,0.4,0.6,0.9,0.6,1.5V68.5z"
				/>
			<g id="XMLID_46_">
				<path id="XMLID_48_" class="st0" d="M332.3,67.2l-36.4-46.8c-0.6-0.8-1.4-1-2.4-0.7c-0.9,0.3-1.4,1-1.4,2v46.8
					c0,0.6,0.2,1.1,0.6,1.5c0.4,0.4,0.9,0.6,1.5,0.6c0.6,0,1.1-0.2,1.5-0.6c0.4-0.4,0.6-0.9,0.6-1.5V27.9l32.5,41.9l0,0l0,0l0,0
					c0.4,0.4,0.8,0.7,1.4,0.7c0.6,0.1,1.1,0,1.6-0.4c0.5-0.4,0.7-0.8,0.8-1.4C332.8,68.2,332.6,67.7,332.3,67.2z"/>
				<path id="XMLID_47_" class="st0" d="M301.4,23.1L337.8,70c0.6,0.8,1.4,1,2.4,0.7c0.9-0.3,1.4-1,1.4-2V21.8
					c0-0.6-0.2-1.1-0.6-1.5c-0.4-0.4-0.9-0.6-1.5-0.6s-1.1,0.2-1.5,0.6c-0.4,0.4-0.6,0.9-0.6,1.5v40.6l-32.5-41.9l0,0l0,0v0
					c-0.4-0.4-0.8-0.7-1.4-0.7c-0.6-0.1-1.1,0-1.6,0.4c-0.5,0.4-0.7,0.8-0.8,1.4C300.9,22.1,301.1,22.7,301.4,23.1z"/>
			</g>
		</g>
	</g>
	<g>
		<g id="XMLID_283_">
			<g id="XMLID_303_">
				<path id="XMLID_321_" class="st1" d="M482.2,68.5c0,0.6-0.2,1.1-0.6,1.5c-0.4,0.4-0.9,0.6-1.5,0.6s-1.1-0.2-1.5-0.6
					c-0.4-0.4-0.6-0.9-0.6-1.5V21.9c0-0.6,0.2-1.1,0.6-1.5c0.4-0.4,0.9-0.6,1.5-0.6s1.1,0.2,1.5,0.6c0.4,0.4,0.6,0.9,0.6,1.5V68.5z"
					/>
				<path id="XMLID_318_" class="st1" d="M404.5,42.3c-0.4-0.4-0.9-0.6-1.5-0.6h-20c-0.6,0-1.1,0.2-1.5,0.6
					c-0.4,0.4-0.6,0.9-0.6,1.5c0,0.6,0.2,1.1,0.6,1.5c0.4,0.4,0.9,0.6,1.5,0.6h17.8V61c-4,3.5-8.7,5.3-14,5.3c-5,0-9.4-1.5-13.2-4.6
					V28.5c3.8-3.1,8.2-4.6,13.2-4.6c4.8,0,9.1,1.5,12.9,4.4c0.5,0.4,1,0.5,1.6,0.4c0.6-0.1,1.1-0.3,1.4-0.8c0.4-0.5,0.5-1,0.4-1.6
					c-0.1-0.6-0.3-1-0.8-1.4c-4.6-3.5-9.8-5.3-15.5-5.3c-7,0-13,2.5-18,7.5c-5,5-7.5,11-7.5,18.1c0,7,2.5,13,7.5,18
					c5,5,11,7.5,18,7.5c5.2,0,9.9-1.4,14-4.2v2c0,0.6,0.2,1.1,0.6,1.5c0.4,0.4,0.9,0.6,1.5,0.6c0.6,0,1.1-0.2,1.5-0.6
					c0.4-0.4,0.6-0.9,0.6-1.5V43.8C405.1,43.2,404.9,42.7,404.5,42.3z M365.6,45.1c0-4.5,1.3-8.6,3.8-12.1v24.2
					C366.9,53.7,365.6,49.6,365.6,45.1z"/>
				<path id="XMLID_314_" class="st1" d="M458.3,27.1c-5-5-11-7.5-18-7.5c-7,0-13,2.5-18,7.5c-5,5-7.5,11-7.5,18c0,7,2.5,13,7.5,18
					c5,5,11,7.5,18,7.5c7,0,13.1-2.5,18-7.5c5-5,7.5-11,7.5-18C465.8,38.1,463.3,32.1,458.3,27.1z M425.3,30.1
					c4.1-4.2,9.2-6.3,15-6.3c5.2,0,9.6,1.6,13.5,4.8l-29.9,29.9c-3.2-3.8-4.8-8.3-4.8-13.5C419.1,39.3,421.2,34.3,425.3,30.1z
					 M455.3,60.1c-4.1,4.1-9.2,6.2-15,6.2c-5.1,0-9.6-1.6-13.4-4.7l29.9-29.9c3.2,3.8,4.8,8.3,4.8,13.4
					C461.6,51,459.5,56,455.3,60.1z"/>
				<path id="XMLID_312_" class="st1" d="M613,68.5c0,0.6-0.2,1.1-0.6,1.5c-0.4,0.4-0.9,0.6-1.5,0.6c-0.6,0-1.1-0.2-1.5-0.6
					c-0.4-0.4-0.6-0.9-0.6-1.5V21.9c0-0.6,0.2-1.1,0.6-1.5c0.4-0.4,0.9-0.6,1.5-0.6c0.6,0,1.1,0.2,1.5,0.6c0.4,0.4,0.6,0.9,0.6,1.5
					V68.5z"/>
				<path id="XMLID_310_" class="st1" d="M645.7,27.4l-17.4,42c-0.4,0.9-1,1.3-2,1.3c-0.3,0-0.4,0-0.4,0s-0.1-0.1-0.4-0.2
					c-0.5-0.2-0.9-0.6-1.1-1.1c-0.2-0.5-0.2-1.1,0-1.6L643.8,21c0-0.1,0.1-0.2,0.2-0.4l0.1-0.1c0.1-0.1,0.1-0.2,0.1-0.2
					c0,0,0.1-0.1,0.2-0.1c0.1-0.1,0.2-0.1,0.1-0.1c0.2-0.2,0.5-0.3,0.7-0.3h0.2c0.1,0,0.2,0,0.2,0c0,0,0.1,0,0.2,0
					c0.1,0,0.2,0,0.2,0c0.3,0,0.5,0.2,0.8,0.3l0.1,0.1c0.1,0.1,0.2,0.1,0.2,0.1c0,0,0.1,0.1,0.1,0.2c0.1,0.1,0.1,0.2,0.1,0.1
					c0.1,0.1,0.1,0.3,0.2,0.4L667,67.7c0.2,0.5,0.2,1.1,0,1.6c-0.2,0.5-0.6,0.9-1.1,1.1c-0.3,0.1-0.5,0.2-0.8,0.2
					c-0.9,0-1.6-0.4-2-1.3L645.7,27.4z"/>
				<path id="XMLID_308_" class="st1" d="M514.9,27.4l-17.4,42c-0.4,0.9-1,1.3-2,1.3c-0.3,0-0.4,0-0.4,0s-0.1-0.1-0.4-0.2
					c-0.5-0.2-0.9-0.6-1.1-1.1c-0.2-0.5-0.2-1.1,0-1.6L513,21c0-0.1,0.1-0.2,0.2-0.4l0.1-0.1c0.1-0.1,0.1-0.2,0.1-0.2
					c0,0,0.1-0.1,0.2-0.1c0.1-0.1,0.2-0.1,0.1-0.1c0.2-0.2,0.5-0.3,0.7-0.3h0.2c0.1,0,0.2,0,0.2,0c0,0,0.1,0,0.2,0
					c0.1,0,0.2,0,0.2,0c0.3,0,0.5,0.2,0.8,0.3l0.1,0.1c0.1,0.1,0.2,0.1,0.2,0.1c0,0,0.1,0.1,0.1,0.2c0.1,0.1,0.1,0.2,0.1,0.1
					c0.1,0.1,0.1,0.3,0.2,0.4l19.3,46.7c0.2,0.5,0.2,1.1,0,1.6c-0.2,0.5-0.6,0.9-1.1,1.1c-0.3,0.1-0.5,0.2-0.8,0.2
					c-0.9,0-1.6-0.4-2-1.3L514.9,27.4z"/>
				<path id="XMLID_307_" class="st1" d="M526.6,14c0,0-9.9-13.2-9.9-13.2l0,0l0,0c-0.5-0.7-1.1-0.8-1.7-0.8c-0.7,0-1.2,0.2-1.7,0.8
					v0l0,0c0,0-9.9,13.2-9.9,13.2c-0.4,0.5-0.5,1-0.4,1.6c0.1,0.6,0.3,1,0.8,1.4c0.2,0.2,0.5,0.3,0.7,0.4c0.9,0.2,1.7,0,2.2-0.8
					l8.2-10.9l8.2,10.9c0.6,0.8,1.3,1,2.2,0.8c0.3-0.1,0.5-0.2,0.7-0.4c0.5-0.3,0.7-0.8,0.8-1.4C527.1,15,526.9,14.5,526.6,14z"/>
				<g id="XMLID_304_">
					<path id="XMLID_306_" class="st1" d="M585.7,67.2l-36.4-46.8c-0.6-0.8-1.4-1-2.4-0.7c-0.9,0.3-1.4,1-1.4,2v46.8
						c0,0.6,0.2,1.1,0.6,1.5c0.4,0.4,0.9,0.6,1.5,0.6c0.6,0,1.1-0.2,1.5-0.6c0.4-0.4,0.6-0.9,0.6-1.5V27.9l32.5,41.9l0,0l0,0l0,0
						c0.4,0.4,0.8,0.7,1.4,0.7c0.6,0.1,1.1,0,1.6-0.4c0.5-0.4,0.7-0.8,0.8-1.4C586.2,68.2,586.1,67.7,585.7,67.2z"/>
					<path id="XMLID_305_" class="st1" d="M554.9,23.1L591.3,70c0.6,0.8,1.4,1,2.4,0.7c0.9-0.3,1.4-1,1.4-2V21.8
						c0-0.6-0.2-1.1-0.6-1.5c-0.4-0.4-0.9-0.6-1.5-0.6c-0.6,0-1.1,0.2-1.5,0.6c-0.4,0.4-0.6,0.9-0.6,1.5v40.6l-32.5-41.9l0,0l0,0v0
						c-0.4-0.4-0.8-0.7-1.4-0.7c-0.6-0.1-1.1,0-1.6,0.4s-0.7,0.8-0.8,1.4C554.4,22.1,554.5,22.7,554.9,23.1z"/>
				</g>
			</g>
			<g id="XMLID_284_">
				<path id="XMLID_301_" class="st1" d="M226.9,23.9h-14c-0.6,0-1.1-0.2-1.5-0.6c-0.4-0.4-0.6-0.9-0.6-1.5c0-0.6,0.2-1.1,0.6-1.5
					c0.4-0.4,0.9-0.6,1.5-0.6h32.3c0.6,0,1.1,0.2,1.5,0.6c0.4,0.4,0.6,0.9,0.6,1.5c0,0.6-0.2,1.1-0.6,1.5c-0.4,0.4-0.9,0.6-1.5,0.6
					h-14v44.6c0,0.6-0.2,1.1-0.6,1.5c-0.4,0.4-0.9,0.6-1.5,0.6c-0.6,0-1.1-0.2-1.5-0.6c-0.4-0.4-0.6-0.9-0.6-1.5V23.9z"/>
				<path id="XMLID_299_" class="st1" d="M216.6,30.9c-0.6,0-1.1-0.2-1.5-0.6c-0.4-0.4-0.6-0.9-0.6-1.5c0-0.6,0.2-1.1,0.6-1.5
					c0.4-0.4,0.9-0.6,1.5-0.6h24.8c0.6,0,1.1,0.2,1.5,0.6c0.4,0.4,0.6,0.9,0.6,1.5c0,0.6-0.2,1.1-0.6,1.5c-0.4,0.4-0.9,0.6-1.5,0.6
					H216.6z"/>
				<path id="XMLID_296_" class="st1" d="M40,20.3c-0.4-0.4-0.9-0.6-1.5-0.6H10.2c-0.5,0-1,0.1-1.5,0.6c-0.4,0.4-0.6,0.9-0.6,1.5V43
					h-6c-0.6,0-1.1,0.2-1.5,0.6C0.2,44,0,44.5,0,45.1c0,0.6,0.2,1.1,0.6,1.5C1,47,1.5,47.2,2.1,47.2h6v21.3c0,0.6,0.2,1.1,0.6,1.5
					c0.4,0.4,0.9,0.6,1.5,0.6c0.6,0,1.1-0.2,1.5-0.6c0.4-0.4,0.6-0.9,0.6-1.5V47.2h2.7v21.3c0,0.6,0.2,1.1,0.6,1.5
					c0.4,0.4,0.9,0.6,1.5,0.6c0.6,0,1.1-0.2,1.5-0.6c0.4-0.4,0.6-0.9,0.6-1.5V47.2h12.5c0.6,0,1.1-0.2,1.5-0.6
					c0.4-0.4,0.6-0.9,0.6-1.5s-0.2-1.1-0.6-1.5C33,43.2,32.5,43,31.9,43l-12.5,0V23.9l19.1,0.1c0.6,0,1.1-0.2,1.5-0.6
					c0.4-0.4,0.6-0.9,0.6-1.5C40.6,21.2,40.4,20.7,40,20.3z M15.1,43h-2.7V23.8l2.7,0V43z"/>
				<path id="XMLID_292_" class="st1" d="M69.3,47c3.5-0.5,6.5-2.1,8.8-4.6c2.4-2.6,3.6-5.5,3.6-8.9c0-3.8-1.4-7-4.3-9.7
					c-2.9-2.7-6.4-4-10.5-4H50.7c-0.6,0-1.1,0.2-1.5,0.6c-0.4,0.4-0.6,0.9-0.6,1.5v46.4c0,0.6,0.2,1.1,0.6,1.5
					c0.4,0.4,0.9,0.6,1.5,0.6c0.6,0,1.1-0.2,1.5-0.6c0.4-0.4,0.6-0.9,0.6-1.5v-21h11.9l11,22.3c0.4,0.8,1,1.2,1.9,1.2
					c0.3,0,0.6-0.1,0.9-0.2c0.5-0.3,0.9-0.7,1.1-1.2c0.2-0.5,0.2-1.1-0.1-1.6L69.3,47z M66.8,23.9c2.9,0,5.5,0.9,7.5,2.8
					c2.1,1.8,3.1,4.1,3.1,6.7c0,0.9-0.1,1.7-0.4,2.5H52.8v-12H66.8z M52.8,42.9v-2.7h21.4c-2,1.8-4.4,2.7-7.2,2.7H52.8z"/>
				<path id="XMLID_288_" class="st1" d="M133.2,27.1c-5-5-11-7.5-18-7.5s-13,2.5-18,7.5c-5,5-7.5,11-7.5,18c0,7,2.5,13,7.5,18
					c5,5,11,7.5,18,7.5s13-2.5,18-7.5c5-5,7.5-11,7.5-18C140.7,38.1,138.2,32.1,133.2,27.1z M100.2,30.1c4.1-4.2,9.2-6.3,15-6.3
					c5.2,0,9.6,1.6,13.5,4.8L98.8,58.6c-3.2-3.8-4.8-8.3-4.8-13.5C94,39.3,96.1,34.3,100.2,30.1z M130.2,60.1
					c-4.1,4.1-9.2,6.2-15,6.2c-5.1,0-9.6-1.6-13.4-4.7l29.9-29.9c3.2,3.8,4.8,8.3,4.8,13.4C136.5,51,134.4,56,130.2,60.1z"/>
				<g id="XMLID_285_">
					<path id="XMLID_287_" class="st1" d="M192.9,67.2l-36.4-46.8c-0.6-0.8-1.4-1-2.4-0.7c-0.9,0.3-1.4,1-1.4,2v46.8
						c0,0.6,0.2,1.1,0.6,1.5c0.4,0.4,0.9,0.6,1.5,0.6c0.6,0,1.1-0.2,1.5-0.6c0.4-0.4,0.6-0.9,0.6-1.5V27.9l32.5,41.9l0,0l0,0l0,0
						c0.4,0.4,0.8,0.7,1.4,0.7c0.6,0.1,1.1,0,1.6-0.4c0.5-0.4,0.7-0.8,0.8-1.4C193.4,68.2,193.3,67.7,192.9,67.2z"/>
					<path id="XMLID_286_" class="st1" d="M162.1,23.1L198.4,70c0.6,0.8,1.4,1,2.4,0.7c0.9-0.3,1.4-1,1.4-2V21.8
						c0-0.6-0.2-1.1-0.6-1.5c-0.4-0.4-0.9-0.6-1.5-0.6c-0.6,0-1.1,0.2-1.5,0.6c-0.4,0.4-0.6,0.9-0.6,1.5v40.6l-32.5-41.9l0,0l0,0v0
						c-0.4-0.4-0.8-0.7-1.4-0.7c-0.6-0.1-1.1,0-1.6,0.4c-0.5,0.4-0.7,0.8-0.8,1.4C161.6,22.1,161.7,22.7,162.1,23.1z"/>
				</g>
			</g>
		</g>
	</g>
</g>
</svg>
